<svg width="3529" height="3529" viewBox="0 0 3529 3529" fill="none" xmlns="http://www.w3.org/2000/svg">
<circle cx="1764.5" cy="1764.5" r="1764.5" fill="#D9D9D9"/>
<path d="M1772.39 2945.36C1558.17 2945.36 1373.71 2894.78 1219 2793.62C1064.28 2692.47 945.269 2553.12 861.961 2375.6C778.653 2198.07 737 1995.26 737 1767.16C737 1535.08 779.645 1330.29 864.936 1152.76C951.219 974.249 1071.22 834.907 1224.95 734.74C1379.66 633.578 1560.16 583 1766.44 583C1927.1 583 2071.91 612.75 2200.83 672.256C2329.76 731.762 2435.38 815.067 2517.7 922.179C2600.01 1029.29 2651.09 1154.25 2670.92 1297.06H2319.84C2293.07 1192.93 2233.56 1100.7 2141.33 1020.36C2050.08 939.041 1927.1 898.38 1772.39 898.38C1635.53 898.38 1515.53 934.079 1412.39 1005.48C1310.23 1075.9 1230.4 1175.57 1172.88 1304.5C1116.35 1432.44 1088.08 1582.69 1088.08 1755.26C1088.08 1931.78 1115.85 2085.51 1171.39 2216.42C1227.92 2347.33 1307.26 2448.99 1409.41 2521.38C1512.55 2593.79 1633.55 2629.98 1772.39 2629.98C1863.63 2629.98 1946.45 2614.12 2020.83 2582.38C2095.21 2550.64 2158.18 2505.02 2209.76 2445.51C2261.33 2386.01 2298.02 2314.6 2319.84 2231.3H2670.92C2651.09 2366.18 2602 2487.67 2523.65 2595.77C2446.29 2702.88 2343.65 2788.17 2215.71 2851.64C2088.76 2914.12 1940.99 2945.36 1772.39 2945.36Z" fill="black"/>
<path d="M2522.72 2031.93C2449.33 2031.93 2386.35 2005.65 2333.78 1953.09C2281.22 1900.53 2254.94 1837.55 2254.94 1764.16C2254.94 1690.77 2281.22 1627.79 2333.78 1575.23C2386.35 1522.66 2449.33 1496.38 2522.72 1496.38C2596.1 1496.38 2659.08 1522.66 2711.64 1575.23C2764.21 1627.79 2790.49 1690.77 2790.49 1764.16C2790.49 1812.76 2778.09 1857.39 2753.3 1898.05C2729.5 1938.71 2697.26 1971.44 2656.6 1996.23C2616.93 2020.03 2572.31 2031.93 2522.72 2031.93Z" fill="black"/>
</svg>
